<svg xmlns="http://www.w3.org/2000/svg">
  <defs>
    <symbol id="home" viewBox="0 0 24 24">
      <g transform="translate(0, 0)">
        <polyline data-cap="butt" fill="none" stroke-width="2" stroke-miterlimit="10" points="4,9.3 4,22 10,22 10,17 14,17 14,22 20,22 20,9.3 " stroke-linejoin="miter" stroke-linecap="butt"/>
        <polyline data-cap="butt" data-color="color-2" fill="none" stroke-width="2" stroke-miterlimit="10" points="1,12 12,2 23,12 " stroke-linejoin="miter" stroke-linecap="butt"/>
        <rect data-color="color-2" x="10" y="9" fill="none" stroke-width="2" stroke-linecap="square" stroke-miterlimit="10" width="4" height="4" stroke-linejoin="miter"/>
      </g>
    </symbol>
    <symbol id="inputs" viewBox="0 0 24 24">
      <g transform="translate(0, 0)">
        <polyline data-cap="butt" fill="none" stroke-width="2" stroke-miterlimit="10" points="8.333,14 1,14 1,1 23,1 23,14 20,14 " stroke-linejoin="miter" stroke-linecap="butt"/>
        <line data-cap="butt" data-color="color-2" fill="none" stroke-width="2" stroke-miterlimit="10" x1="13" y1="14" x2="19" y2="20" stroke-linejoin="miter" stroke-linecap="butt"/>
        <polygon data-color="color-2" fill="none" stroke-width="2" stroke-linecap="square" stroke-miterlimit="10" points="6,7 10,19 13,14 18,11 " stroke-linejoin="miter"/>
      </g>
    </symbol>

    <symbol id="buttons" viewBox="0 0 24 24">
      <g transform="translate(0, 0)">
        <rect x="2" y="2" fill="none" stroke-width="2" stroke-linecap="square" stroke-miterlimit="10" width="20" height="20" stroke-linejoin="miter"/>
      </g>
    </symbol>

    <symbol id="cards" viewBox="0 0 24 24">
      <g transform="translate(0, 0)">
        <rect x="1" y="2" fill="none" stroke-width="2" stroke-linecap="square" stroke-miterlimit="10" width="22" height="20" stroke-linejoin="miter"/>
        <line fill="none" stroke-width="2" stroke-linecap="square" stroke-miterlimit="10" x1="1" y1="6" x2="23" y2="6" stroke-linejoin="miter"/>
        <line fill="none" stroke-width="2" stroke-linecap="square" stroke-miterlimit="10" x1="6" y1="2" x2="6" y2="6" stroke-linejoin="miter"/>
        <rect data-color="color-2" x="5" y="10" fill="none" stroke-width="2" stroke-linecap="square" stroke-miterlimit="10" width="14" height="8" stroke-linejoin="miter"/>
        <line data-color="color-2" fill="none" stroke-width="2" stroke-linecap="square" stroke-miterlimit="10" x1="9" y1="10" x2="9" y2="18" stroke-linejoin="miter"/>
      </g>
    </symbol>

    <symbol id="icons" viewBox="0 0 24 24">
      <g transform="translate(0, 0)">
        <path data-color="color-2" fill="none" stroke-width="2" stroke-linecap="square" stroke-miterlimit="10" d="M18,9c0-1.1-0.9-2-2-2c-1.1,0-2,0.9-2,2" stroke-linejoin="miter"/>
        <path data-color="color-2" fill="none" stroke-width="2" stroke-linecap="square" stroke-miterlimit="10" d="M10,9c0-1.1-0.9-2-2-2C6.9,7,6,7.9,6,9" stroke-linejoin="miter"/>
        <path data-color="color-2" fill="none" stroke-width="2" stroke-linecap="square" stroke-miterlimit="10" d="M8,17h3.6c1.5,0,3-0.6,4.1-1.7L16,15" stroke-linejoin="miter"/>
        <circle fill="none" stroke-width="2" stroke-linecap="square" stroke-miterlimit="10" cx="12" cy="12" r="11" stroke-linejoin="miter"/>
      </g>
    </symbol>

    <symbol id="collapse" viewBox="0 0 24 24">
      <g  transform="translate(0, 0)">
        <line data-cap="butt" fill="none" stroke-width="2" stroke-miterlimit="10" x1="12" y1="4" x2="12" y2="20" stroke-linejoin="miter" stroke-linecap="butt"/>
        <polyline fill="none" stroke-width="2" stroke-linecap="square" stroke-miterlimit="10" points="16,16 12,20 8,16 " stroke-linejoin="miter"/>
        <polyline fill="none" stroke-width="2" stroke-linecap="square" stroke-miterlimit="10" points="8,8 12,4 16,8 " stroke-linejoin="miter"/>
        <line data-color="color-2" fill="none" stroke-width="2" stroke-linecap="square" stroke-miterlimit="10" x1="21" y1="1" x2="3" y2="1" stroke-linejoin="miter"/>
        <line data-color="color-2" fill="none" stroke-width="2" stroke-linecap="square" stroke-miterlimit="10" x1="21" y1="23" x2="3" y2="23" stroke-linejoin="miter"/>
      </g>
    </symbol>



  </defs>
</svg>
